<svg role="img" viewBox="0 0 24 24" xmlns="http://www.w3.org/2000/svg" class="fill-gray-700 dark:fill-gray-200 transition-colors duration-300">
    <title>Unity</title>
    <path d="M11.296 6.152c-.498-.86-1.627-1.158-2.479-.663-.848.5-1.142 1.622-.647 2.475l1.416 2.445a4.934 4.934 0 0 1-1.143.225 4.942 4.942 0 0 1-.816-3.639c.379-.92-.071-1.99-1.001-2.371s-1.996.083-2.37.996a2.495 2.495 0 0 0 .28 2.373L0 12l4.523 4.008c-.22.814-.132 1.702.28 2.373.374.913 1.44 1.376 2.37.996.93-.381 1.38-1.451 1.001-2.371-.224-.553-.523-1.052-.887-1.498a4.923 4.923 0 0 1 2.165.12l-1.276 2.207c-.504.851-.221 1.979.624 2.484.853.503 1.988.216 2.496-.643l1.178-2.03c.778.346 1.64.484 2.5.351a5.004 5.004 0 0 1 .633 2.481c.005.994.819 1.801 1.803 1.801.99 0 1.803-.807 1.803-1.801.002-.883-.259-1.703-.7-2.391L24 12l-5.292-3.627c.242-.572.411-1.188.48-1.836a2.507 2.507 0 0 0-2.5-2.779c-1.034.01-1.917.658-2.274 1.562a4.956 4.956 0 0 1-1.65-1.465L13.775 2.47C13.277 1.617 12.147 1.319 11.296 1.817 10.454 2.318 10.156 3.44 10.654 4.292L12.55 7.57a4.904 4.904 0 0 1 1.239-.648l-2.493-4.304V6.152z"/>
</svg>